<?xml version="1.0" standalone="no"?>
<!DOCTYPE svg PUBLIC "-//W3C//DTD SVG 20010904//EN"
 "http://www.w3.org/TR/2001/REC-SVG-20010904/DTD/svg10.dtd">
<svg version="1.0" xmlns="http://www.w3.org/2000/svg"
 width="1024.000000pt" height="1024.000000pt" viewBox="0 0 1024.000000 1024.000000"
 preserveAspectRatio="xMidYMid meet">

<g transform="translate(0.000000,1024.000000) scale(0.100000,-0.100000)"
fill="#000000" stroke="none">
<path d="M4900 8172 c-117 -202 -245 -421 -283 -487 -38 -66 -86 -149 -107
-185 -21 -36 -101 -173 -177 -305 -210 -361 -655 -1127 -936 -1610 -137 -236
-306 -527 -375 -645 -68 -118 -153 -264 -189 -325 -35 -60 -189 -324 -342
-585 l-277 -475 2895 -5 c1593 -3 2897 -4 2899 -4 1 1 -68 122 -154 270 -86
148 -189 325 -229 394 -39 69 -153 265 -252 435 -99 171 -220 380 -270 465
-49 85 -231 398 -403 695 -173 297 -344 592 -380 655 -37 63 -92 159 -123 213
-133 228 -178 305 -320 552 -83 143 -168 292 -190 330 -22 39 -119 205 -215
370 -96 165 -215 370 -264 455 -50 85 -91 156 -92 157 -1 2 -98 -163 -216
-365z m236 -1050 c11 -20 100 -168 196 -327 97 -160 215 -360 262 -445 l86
-155 -285 -3 c-157 -1 -413 -1 -569 0 l-284 3 96 160 c155 261 442 754 454
780 6 14 14 25 17 25 3 0 15 -17 27 -38z m814 -1429 c0 -3 -13 -27 -29 -52
-34 -54 -747 -1283 -798 -1374 -8 -15 -23 6 -93 130 -75 134 -286 498 -475
823 -40 69 -118 205 -173 303 l-101 177 835 0 c459 0 834 -3 834 -7z m-1949
-501 c9 -15 138 -238 288 -495 150 -258 271 -470 269 -473 -3 -2 -266 -3 -585
-2 l-580 3 143 240 c79 132 210 356 291 497 82 142 150 258 153 258 3 0 12
-12 21 -28z m2386 -207 c55 -93 153 -260 218 -370 64 -110 142 -242 172 -293
30 -51 53 -95 51 -98 -3 -2 -264 -3 -581 -2 l-577 3 81 140 c45 77 129 221
189 320 59 99 153 258 210 354 l102 174 18 -29 c9 -16 62 -105 117 -199z"/>
<path d="M1533 2794 c-112 -26 -192 -81 -253 -175 -116 -179 -92 -438 55 -584
148 -149 413 -154 559 -11 214 208 166 606 -87 735 -76 39 -194 54 -274 35z
m187 -179 c40 -21 81 -66 104 -115 16 -35 21 -65 21 -140 0 -82 -4 -103 -27
-152 -42 -90 -133 -136 -232 -117 -87 16 -130 51 -168 134 -19 41 -22 66 -21
140 1 97 14 141 59 194 61 73 182 99 264 56z"/>
<path d="M4088 2781 c-158 -52 -261 -200 -275 -396 -9 -133 29 -245 115 -337
88 -95 187 -134 317 -125 103 6 181 36 244 93 93 84 144 204 143 343 0 188
-88 338 -240 409 -76 36 -217 42 -304 13z m238 -171 c84 -36 130 -140 122
-274 -9 -138 -61 -214 -167 -242 -77 -20 -169 5 -217 58 -101 111 -90 349 21
433 71 55 153 64 241 25z"/>
<path d="M2230 2361 l0 -431 90 0 90 0 0 139 0 139 118 4 c104 3 125 7 175 32
105 51 153 141 145 274 -7 120 -58 196 -163 244 -46 20 -68 23 -252 26 l-203
4 0 -431z m394 236 c20 -16 42 -40 47 -54 23 -61 -23 -144 -89 -163 -20 -5
-70 -10 -111 -10 l-74 0 7 61 c3 34 6 93 6 131 l0 70 88 -4 c79 -3 93 -6 126
-31z"/>
<path d="M3032 2363 l3 -428 93 -3 92 -3 0 139 0 139 113 5 c124 5 176 21 238
76 60 52 84 114 84 212 0 75 -4 91 -30 139 -33 59 -67 89 -141 123 -45 21 -67
23 -252 26 l-202 4 2 -429z m386 243 c57 -30 78 -105 46 -167 -23 -45 -83 -69
-176 -69 l-78 0 0 63 c0 34 3 93 7 131 l6 69 82 -5 c46 -3 95 -13 113 -22z"/>
<path d="M4830 2361 l0 -431 90 0 90 0 0 155 0 155 53 0 53 0 96 -152 96 -153
101 -3 c56 -1 101 0 101 3 0 5 -35 65 -159 275 l-27 44 46 31 c31 21 53 47 75
89 26 52 30 70 30 140 0 64 -5 90 -22 122 -30 56 -75 100 -131 126 -43 20 -67
22 -269 26 l-223 4 0 -431z m393 255 c52 -22 72 -52 72 -106 0 -87 -53 -120
-195 -120 l-90 0 0 120 0 120 90 0 c54 0 104 -6 123 -14z"/>
<path d="M5640 2700 l0 -90 120 0 120 0 0 -340 0 -341 88 3 87 3 2 35 c0 19 2
171 2 338 l1 302 120 0 120 0 0 90 0 90 -330 0 -330 0 0 -90z"/>
<path d="M6492 2483 c4 -294 5 -311 27 -366 45 -114 119 -170 249 -189 144
-21 281 16 343 92 16 19 39 60 52 90 20 52 22 73 25 368 l3 312 -90 0 -91 0 0
-288 c0 -279 -1 -289 -22 -332 -40 -79 -140 -105 -231 -61 -79 38 -82 50 -85
389 l-3 292 -90 0 -91 0 4 -307z"/>
<path d="M7420 2360 l0 -430 90 0 90 0 0 268 c1 212 3 264 13 250 7 -9 89
-129 182 -267 l170 -250 78 -1 77 0 0 430 0 430 -80 0 -80 0 -2 -277 -3 -278
-99 150 c-126 192 -221 342 -237 378 -12 27 -13 27 -106 27 l-93 0 0 -430z"/>
<path d="M8370 2360 l0 -430 295 0 295 0 0 85 0 85 -206 2 -207 3 -1 93 -1 92
182 0 183 0 0 80 0 80 -180 0 -180 0 0 85 0 85 195 0 195 0 0 85 0 85 -285 0
-285 0 0 -430z"/>
</g>
</svg>
