<?xml version="1.0" standalone="no"?>
<!DOCTYPE svg PUBLIC "-//W3C//DTD SVG 20010904//EN"
 "http://www.w3.org/TR/2001/REC-SVG-20010904/DTD/svg10.dtd">
<svg version="1.0" xmlns="http://www.w3.org/2000/svg"
 width="1024.000000pt" height="1024.000000pt" viewBox="0 0 1024.000000 1024.000000"
 preserveAspectRatio="xMidYMid meet">

<g transform="translate(0.000000,1024.000000) scale(0.100000,-0.100000)"
fill="#000000" stroke="none">
<path d="M0 5120 l0 -5120 5120 0 5120 0 0 5120 0 5120 -5120 0 -5120 0 0
-5120z m5208 3260 c49 -85 168 -290 264 -455 96 -165 193 -331 215 -370 22
-38 107 -187 190 -330 142 -247 187 -324 320 -552 31 -54 86 -150 123 -213 36
-63 207 -358 380 -655 172 -297 354 -610 403 -695 50 -85 171 -294 270 -465
99 -170 213 -366 252 -435 40 -69 143 -246 229 -394 86 -148 155 -269 154
-270 -2 0 -1306 1 -2899 4 l-2895 5 277 475 c153 261 307 525 342 585 36 61
121 207 189 325 69 118 238 409 375 645 281 483 726 1249 936 1610 76 132 156
269 177 305 21 36 69 119 107 185 279 482 497 854 499 852 1 -1 42 -72 92
-157z m-3401 -5621 c104 -53 178 -152 208 -281 40 -171 -5 -341 -121 -454 -63
-62 -138 -94 -234 -101 -217 -16 -382 104 -440 318 -18 65 -16 185 5 257 33
117 124 227 221 268 116 50 254 47 361 -7z m2585 9 c152 -71 240 -221 240
-409 1 -139 -50 -259 -143 -343 -120 -108 -329 -127 -473 -42 -52 30 -128 110
-154 163 -100 195 -44 469 120 589 74 55 145 74 258 71 79 -2 105 -7 152 -29z
m-1707 -6 c105 -48 156 -124 163 -244 8 -133 -40 -223 -145 -274 -50 -25 -71
-29 -175 -32 l-118 -4 0 -139 0 -139 -90 0 -90 0 0 431 0 431 203 -4 c184 -3
206 -6 252 -26z m799 0 c74 -34 108 -64 141 -123 26 -48 30 -64 30 -139 0 -98
-24 -160 -84 -212 -62 -55 -114 -71 -238 -76 l-113 -5 0 -139 0 -139 -92 3
-93 3 -3 428 -2 429 202 -4 c185 -3 207 -5 252 -26z m1838 0 c56 -26 101 -70
131 -126 17 -32 22 -58 22 -122 0 -70 -4 -88 -30 -140 -22 -42 -44 -68 -75
-89 l-46 -31 27 -44 c124 -210 159 -270 159 -275 0 -3 -45 -4 -101 -3 l-101 3
-96 153 -96 152 -53 0 -53 0 0 -155 0 -155 -90 0 -90 0 0 431 0 431 223 -4
c202 -4 226 -6 269 -26z m978 -62 l0 -90 -120 0 -120 0 -1 -302 c0 -167 -2
-319 -2 -338 l-2 -35 -87 -3 -88 -3 0 341 0 340 -120 0 -120 0 0 90 0 90 330
0 330 0 0 -90z m372 -202 c3 -339 6 -351 85 -389 91 -44 191 -18 231 61 21 43
22 53 22 332 l0 288 91 0 90 0 -3 -312 c-3 -295 -5 -316 -25 -368 -13 -30 -36
-71 -52 -90 -62 -76 -199 -113 -343 -92 -130 19 -204 75 -249 189 -22 55 -23
72 -27 366 l-4 307 91 0 90 0 3 -292z m947 265 c16 -36 111 -186 237 -378 l99
-150 3 278 2 277 80 0 80 0 0 -430 0 -430 -77 0 -78 1 -170 250 c-93 138 -175
258 -182 267 -10 14 -12 -38 -13 -250 l0 -268 -90 0 -90 0 0 430 0 430 93 0
c93 0 94 0 106 -27z m1321 -58 l0 -85 -195 0 -195 0 0 -85 0 -85 180 0 180 0
0 -80 0 -80 -183 0 -182 0 1 -92 1 -93 207 -3 206 -2 0 -85 0 -85 -295 0 -295
0 0 430 0 430 285 0 285 0 0 -85z"/>
<path d="M5092 7135 c-12 -26 -299 -519 -454 -780 l-96 -160 284 -3 c156 -1
412 -1 569 0 l285 3 -86 155 c-47 85 -165 285 -262 445 -96 159 -185 307 -196
327 -12 21 -24 38 -27 38 -3 0 -11 -11 -17 -25z"/>
<path d="M4382 5523 c55 -98 133 -234 173 -303 189 -325 400 -689 475 -823 70
-124 85 -145 93 -130 51 91 764 1320 798 1374 16 25 29 49 29 52 0 4 -375 7
-834 7 l-835 0 101 -177z"/>
<path d="M3827 4962 c-81 -141 -212 -365 -291 -497 l-143 -240 580 -3 c319 -1
582 0 585 2 2 3 -119 215 -269 473 -150 257 -279 480 -288 495 -9 16 -18 28
-21 28 -3 0 -71 -116 -153 -258z"/>
<path d="M6150 5039 c-57 -96 -151 -255 -210 -354 -60 -99 -144 -243 -189
-320 l-81 -140 577 -3 c317 -1 578 0 581 2 2 3 -21 47 -51 98 -30 51 -108 183
-172 293 -65 110 -163 277 -218 370 -55 94 -108 183 -117 199 l-18 29 -102
-174z"/>
<path d="M1575 2631 c-120 -31 -176 -115 -178 -266 -1 -74 2 -99 21 -140 38
-83 81 -118 168 -134 99 -19 190 27 232 117 23 49 27 70 27 152 0 75 -5 105
-21 140 -23 49 -64 94 -104 115 -34 17 -108 26 -145 16z"/>
<path d="M4162 2626 c-92 -30 -140 -89 -162 -204 -19 -96 8 -209 64 -270 69
-77 212 -86 299 -19 101 77 117 308 29 426 -45 60 -152 91 -230 67z"/>
<path d="M2410 2562 c0 -38 -3 -97 -6 -131 l-7 -61 74 0 c41 0 91 5 111 10 66
19 112 102 89 163 -5 14 -27 38 -47 54 -33 25 -47 28 -126 31 l-88 4 0 -70z"/>
<path d="M3217 2564 c-4 -38 -7 -97 -7 -131 l0 -63 78 0 c93 0 153 24 176 69
32 62 11 137 -46 167 -18 9 -67 19 -113 22 l-82 5 -6 -69z"/>
<path d="M5010 2510 l0 -120 90 0 c142 0 195 33 195 120 0 87 -53 120 -195
120 l-90 0 0 -120z"/>
</g>
</svg>
